<svg width="0" height="0" class="hidden">
  
  <symbol xmlns="http://www.w3.org/2000/svg" viewBox="0 0 36 36" id="fb">
    <circle cx="18" cy="18" r="18"></circle>
    <path d="M19.37 28.488V18.243h2.834l.376-3.53h-3.21l.005-1.768c0-.92.087-1.414 1.413-1.414h1.772V8h-2.835c-3.405 0-4.603 1.713-4.603 4.593v2.12H13v3.53h2.122v10.245h4.248z" fill="#9B9BCA"></path>
  </symbol>
  <symbol xmlns="http://www.w3.org/2000/svg" viewBox="0 0 36 36" id="insta">
    <circle cx="18" cy="18" r="18"></circle>
    <path d="M18.002 13.898A4.095 4.095 0 0013.9 18a4.095 4.095 0 004.1 4.102A4.095 4.095 0 0022.104 18a4.095 4.095 0 00-4.101-4.102zm0 6.769A2.672 2.672 0 0115.335 18a2.67 2.67 0 012.667-2.667A2.67 2.67 0 0120.668 18c0 1.47-1.2 2.667-2.666 2.667zm5.225-6.937a.954.954 0 01-.956.957.957.957 0 11.957-.957zm2.717.971c-.06-1.282-.354-2.417-1.292-3.352-.936-.936-2.07-1.229-3.352-1.293-1.32-.075-5.28-.075-6.6 0-1.278.06-2.413.354-3.352 1.29-.938.934-1.228 2.07-1.292 3.351-.075 1.322-.075 5.28 0 6.602.06 1.282.354 2.417 1.292 3.352.94.936 2.07 1.229 3.352 1.293 1.32.075 5.28.075 6.6 0 1.281-.06 2.416-.354 3.352-1.293.935-.935 1.227-2.07 1.292-3.352.075-1.321.075-5.277 0-6.598zm-1.706 8.015a2.7 2.7 0 01-1.521 1.521c-1.053.418-3.552.322-4.715.322-1.164 0-3.666.092-4.715-.322a2.7 2.7 0 01-1.521-1.52c-.418-1.054-.321-3.553-.321-4.717 0-1.164-.093-3.667.321-4.716a2.7 2.7 0 011.52-1.521c1.053-.418 3.552-.322 4.716-.322 1.163 0 3.666-.092 4.715.322a2.7 2.7 0 011.52 1.52c.418 1.054.322 3.553.322 4.717 0 1.164.096 3.667-.321 4.716z" fill="#9B9BCA"></path>
  </symbol>
  <symbol xmlns="http://www.w3.org/2000/svg" viewBox="0 0 36 36" id="twit">
    <circle cx="18" cy="18" r="18"></circle>
    <path fill-rule="evenodd" clip-rule="evenodd" d="M17.91 14.66l-.04-.652c-.119-1.69.924-3.232 2.574-3.83.607-.213 1.637-.24 2.31-.054.264.08.765.346 1.122.586l.646.438.713-.226c.396-.12.924-.319 1.162-.452.224-.12.422-.186.422-.146 0 .226-.488.997-.897 1.423-.555.598-.396.652.726.252.673-.226.686-.226.554.027-.08.133-.489.598-.924 1.024-.74.731-.779.811-.779 1.423 0 .944-.449 2.912-.897 3.99-.832 2.02-2.614 4.108-4.396 5.16-2.508 1.475-5.847 1.848-8.659.983C10.61 24.314 9 23.57 9 23.436c0-.04.488-.093 1.082-.106a7.443 7.443 0 003.538-.984l.713-.426-.819-.28c-1.161-.398-2.204-1.316-2.468-2.18-.08-.28-.053-.293.686-.293l.766-.013-.647-.306c-.766-.386-1.465-1.037-1.808-1.702-.251-.479-.568-1.689-.475-1.782.026-.04.303.04.62.146.91.333 1.03.253.502-.306-.99-1.01-1.294-2.513-.819-3.936l.225-.638.87.864c1.783 1.742 3.881 2.78 6.284 3.085l.66.08z" fill="#9B9BCA"></path>
  </symbol>
  <symbol fill="none" xmlns="http://www.w3.org/2000/svg" viewBox="0 0 474 214" id="vector-1">
    <path d="M.5 213c4.333-46.667.6-148.8 181-96C407 183 474.5 89 473 1" stroke="#9D9D9D" stroke-dasharray="2 4"></path>
  </symbol>
  <symbol fill="none" xmlns="http://www.w3.org/2000/svg" viewBox="0 0 176 324" id="vector-2">
    <path d="M.5.5C122.167 71.167 301.2 234.6 44 323" stroke="#9D9D9D" stroke-dasharray="2 4"></path>
  </symbol>
  <symbol fill="none" xmlns="http://www.w3.org/2000/svg" viewBox="0 0 115 171" id="vector-3">
    <path d="M.5 1c55.167 7.5 151.8 51.8 97 169" stroke="#9D9D9D" stroke-dasharray="2 4"></path>
  </symbol>
</svg>
