<svg width="72" height="72" fill="none" xmlns="http://www.w3.org/2000/svg"><circle cx="36" cy="36" r="36" fill="#C8C8C8"/><g filter="url(#filter0_d)"><path d="M16.201 27.404c3.952-.293 6.53-.44 7.735-.44 1.21 0 2.164.115 2.86.343a6.61 6.61 0 011.886.927c1.074.762 1.884 1.774 2.431 3.037.554 1.264.83 2.543.83 3.838 0 1.296-.211 2.429-.634 3.399a6.902 6.902 0 01-1.739 2.441c-1.517 1.374-3.48 2.058-5.888 2.051h-7.48V27.404zm6.074 4.951v5.948c.345-.293.72-.583 1.123-.87 1.55-1.113 2.325-2.278 2.325-3.495 0-.593-.176-1.14-.528-1.641-.351-.508-.81-.762-1.377-.762-.56 0-1.074.274-1.543.82zm16.846-4.95l1.787 5.556 3.897-5.225c.13-.175.228-.29.293-.341.065-.053.162-.079.293-.079.13 0 .296.14.498.42l3.633 5.166 1.757-5.498h5.586L51.768 42.6c-.222.65-.596.976-1.123.976-.528 0-1-.3-1.417-.898l-4.365-6.3-4.697 6.32c-.423.56-.895.84-1.416.84-.52 0-.902-.326-1.143-.977L32.12 27.403h7.002z" fill="#fff"/></g><defs><filter id="filter0_d" x="12.201" y="22.965" width="52.664" height="28.611" filterUnits="userSpaceOnUse" color-interpolation-filters="sRGB"><feFlood flood-opacity="0" result="BackgroundImageFix"/><feColorMatrix in="SourceAlpha" values="0 0 0 0 0 0 0 0 0 0 0 0 0 0 0 0 0 0 127 0"/><feOffset dx="2" dy="2"/><feGaussianBlur stdDeviation="3"/><feColorMatrix values="0 0 0 0 0 0 0 0 0 0 0 0 0 0 0 0 0 0 0.25 0"/><feBlend in2="BackgroundImageFix" result="effect1_dropShadow"/><feBlend in="SourceGraphic" in2="effect1_dropShadow" result="shape"/></filter></defs></svg>