<svg width="36" height="36" fill="none" xmlns="http://www.w3.org/2000/svg"><circle cx="18" cy="18" r="18" fill="#fff"/><path fill-rule="evenodd" clip-rule="evenodd" d="M17.91 14.66l-.04-.652c-.119-1.69.924-3.232 2.574-3.83.607-.213 1.637-.24 2.31-.054.264.08.765.346 1.122.586l.646.438.713-.226c.396-.12.924-.319 1.162-.452.224-.12.422-.186.422-.146 0 .226-.488.997-.897 1.423-.555.598-.396.652.726.252.673-.226.686-.226.554.027-.08.133-.489.598-.924 1.024-.74.731-.779.811-.779 1.423 0 .944-.449 2.912-.897 3.99-.832 2.02-2.614 4.108-4.396 5.16-2.508 1.475-5.847 1.848-8.659.983C10.61 24.314 9 23.57 9 23.436c0-.04.488-.093 1.082-.106a7.443 7.443 0 003.538-.984l.713-.426-.819-.28c-1.161-.398-2.204-1.316-2.468-2.18-.08-.28-.053-.293.686-.293l.766-.013-.647-.306c-.766-.386-1.465-1.037-1.808-1.702-.251-.479-.568-1.689-.475-1.782.026-.04.303.04.62.146.91.333 1.03.253.502-.306-.99-1.01-1.294-2.513-.819-3.936l.225-.638.87.864c1.783 1.742 3.881 2.78 6.284 3.085l.66.08z" fill="#9B9BCA"/></svg>